<svg xmlns="http://www.w3.org/2000/svg" height="175" viewBox="0 0 610.76 245.49">
    <defs>
        <style>
            .cls-1{fill:currentColor;stroke-width:0}
        </style>
    </defs>
    <path d="m471.88 67.7-29.71 29.96c-4.14 4.17-6.4 9.71-6.38 15.58.02 5.88 2.34 11.39 6.51 15.53 4.15 4.11 9.65 6.38 15.49 6.38s11.46-2.31 15.62-6.51l29.71-29.96 29.96 29.71c8.62 8.54 22.57 8.48 31.11-.13 8.54-8.61 8.48-22.57-.13-31.11L534.1 67.44l29.71-29.96c4.14-4.17 6.4-9.71 6.38-15.58-.02-5.88-2.34-11.39-6.51-15.53-8.61-8.54-22.57-8.48-31.11.13l-29.71 29.96L472.9 6.75c-8.61-8.54-22.57-8.48-31.11.13-8.54 8.61-8.48 22.57.13 31.11l29.96 29.71Zm-24.41-55.19c2.73-2.75 6.34-4.13 9.94-4.13s7.13 1.35 9.86 4.05l35.64 35.34 35.34-35.64c5.43-5.48 14.32-5.52 19.8-.08 2.66 2.63 4.13 6.14 4.14 9.88s-1.43 7.26-4.06 9.92l-35.34 35.64 35.64 35.34c5.48 5.43 5.52 14.32.08 19.8-5.44 5.48-14.32 5.52-19.8.08l-35.64-35.34-35.34 35.64c-2.65 2.67-6.18 4.14-9.94 4.14s-7.22-1.44-9.86-4.06c-2.66-2.63-4.13-6.14-4.14-9.88s1.43-7.26 4.06-9.92l35.34-35.64-35.64-35.34c-5.48-5.43-5.52-14.32-.08-19.8ZM39.72 44.71h23.2v68.42c0 12.13 9.87 22 22 22s22-9.87 22-22V44.71h50.52v68.4c0 12.13 9.87 22 22 22s22-9.87 22-22v-68.4h33.39c9.41 0 13.46 2.48 14.76 3.54 1.21.99 1.21 1.63 1.21 1.84 0 1.94-3.79 7.26-15.97 7.26-9.02 0-17.02 5.4-20.4 13.76-3.38 8.36-1.36 17.81 5.13 24.07l35.01 33.77c4.12 3.98 9.55 6.17 15.27 6.17 6.03 0 11.65-2.39 15.84-6.73 4.08-4.23 6.27-9.79 6.16-15.67-.11-5.88-2.49-11.36-6.72-15.44l-9.39-9.05c12.03-9.57 19.07-23.51 19.07-38.14 0-13.81-6.33-26.9-17.38-35.92C266.64 5.37 251.91.71 234.83.71H39.72c-12.13 0-22 9.87-22 22s9.87 22 22 22Zm0-36h195.12c15.22 0 28.19 4.03 37.53 11.66 9.18 7.49 14.44 18.33 14.44 29.72 0 13.49-7.28 26.34-19.48 34.36l-4.18 2.75 16.42 15.84c2.69 2.6 4.21 6.08 4.28 9.82.07 3.74-1.33 7.28-3.92 9.97-2.66 2.76-6.24 4.28-10.08 4.28s-7.09-1.39-9.72-3.92l-35.01-33.77a13.94 13.94 0 0 1-3.26-15.32 13.94 13.94 0 0 1 12.98-8.76c17.59 0 23.97-9.12 23.97-15.26 0-2.12-.72-5.23-4.15-8.03-2.98-2.44-8.85-5.34-19.82-5.34h-41.39v76.4c0 7.72-6.28 14-14 14s-14-6.28-14-14v-76.4H98.93v76.42c0 7.72-6.28 14-14 14s-14-6.28-14-14V36.71h-31.2c-7.72 0-14-6.28-14-14s6.28-14 14-14ZM328.63 79.9l-.21.14c-1.92 1.31-3.73 2.52-5.45 3.66-13.07 8.73-21.7 14.49-21.72 27.72-.01 6.33 2.44 12.29 6.92 16.77a23.508 23.508 0 0 0 16.75 6.95l80.55-.02c12.54 0 22.75-10.21 22.75-22.75s-9.76-21.75-21.75-21.75h-20.15c8.96-6.78 21.7-17 28.28-24.92 6.9-8.31 9.82-19.32 8.01-30.21-1.81-10.85-8.14-20.3-17.37-25.92-15.9-9.7-33.36-9.89-49.85-8.66-13.37 1-24.31 4.65-33.45 11.16-12.49 8.89-18.76 20.78-18.64 35.31 0 2.54.99 4.92 2.79 6.72a9.409 9.409 0 0 0 6.7 2.77h.02l36.46-.05c4.69 0 8.62-3.34 9.34-7.93.09-.55.19-1.01.32-1.38.7-2.09 1.81-3.03 3.95-3.33 1.71-.24 3.08-.07 3.67.46.46.4.54 1.21.53 1.82-.02 1.53-1.04 3-1.9 3.96-10.19 11.5-23.59 20.63-36.54 29.46Zm42.53-24.16c2.52-2.84 3.87-6 3.91-9.16.05-3.28-1.07-6.03-3.24-7.94-1.4-1.24-3.78-2.56-7.55-2.56-.78 0-1.62.06-2.52.18-5.16.72-8.77 3.74-10.43 8.72-.26.79-.47 1.68-.63 2.66-.11.67-.73 1.18-1.46 1.18l-36.46.05c-.54 0-.89-.27-1.05-.44s-.44-.52-.44-1.09c-.1-11.96 4.9-21.37 15.28-28.76 7.92-5.64 17.54-8.81 29.41-9.7 15.16-1.14 31.11-1.02 45.09 7.5 7.24 4.41 12.21 11.85 13.64 20.4 1.43 8.59-.85 17.26-6.27 23.78-9.89 11.91-36.38 30.57-36.64 30.75l-10.36 7.27h45.03c7.58 0 13.75 6.17 13.75 13.75 0 8.13-6.62 14.75-14.75 14.75l-80.55.02c-4.19 0-8.13-1.63-11.09-4.6a15.57 15.57 0 0 1-4.58-11.1c.02-8.52 4.68-12.07 18.17-21.08 1.73-1.16 3.57-2.38 5.51-3.71l.21-.14c12.74-8.68 27.17-18.52 38.02-30.77ZM338.47 186.77c.13-1.36.11-2.92-.07-4.75-.43-4.34-1.21-9.17-5.05-11.55-4.28-2.65-10.32-1.29-21.8 2.97-7.65-5.93-34.24-25.51-51.27-24.51-18.22 1.06-26.73 5.76-41.11 16.17L65.05 180.23c-1.59-5.21-5.96-11.27-15.47-11.27H12.36L0 199.46l12.36 30.5h37.22c9.47 0 13.83-5.52 15.44-10.3l155.74 2.78c20.56 4.03 51.15 11.14 55.47 14.45 4.68 3.59 20.2 8.6 32.96 8.6 4.85 0 9.31-.73 12.62-2.53 3.68-2.01 5.88-5.21 6.37-9.18h155.46c104.06 0 123.7-39.64 124.48-41.33l2.65-5.69H338.48ZM49.58 221.95H17.75l-9.12-22.5 9.12-22.5h31.83c4.14 0 6.2 2.05 7.22 4.08l-9.22.91-1.02 1.07c-9.5 9.9-1.83 31.36-.93 33.77l.96 2.55 9.52.17c-1.18 1.33-3.16 2.45-6.53 2.45Zm268.39 13.99c-8.37 4.57-32.01-1.67-36.88-5.4-7.41-5.68-50.57-14.34-59.15-16.02l-.34-.07-169.33-3.03c-1.79-5.91-4.02-16.67-.75-21.83l169.51-16.65 1.08-.11.88-.64c14.19-10.33 21.12-14.32 37.75-15.29 13.38-.77 38.89 17.19 47.59 24.18l1.78 1.43 2.14-.81c3.69-1.4 14.92-5.66 16.87-4.45.13.08.83.74 1.31 5.54.26 2.65.03 3.7-.04 3.96h-16.74l-46.39 11.29 2.07 4.43c12.52 26.76 25.36 30.8 26.78 31.17l.5.13h23.4c-.34.9-.99 1.59-2.03 2.16Zm261.77-28.67c-15.43 8.45-44.64 18.51-96.11 18.51H297.82c-1.87-.8-10.15-5.18-19.08-22.29l35.86-8.72h281.91c-3.21 3.42-8.49 7.97-16.77 12.5Z" class="cls-1"/>
    <path d="M282.1 178.81c-.32-3.78-2.74-6.66-6.46-7.73-1.31-.37-3.15-.97-5.29-1.66-16.38-5.3-27.38-8.33-30.86-2.47-2.84 4.77 1.77 10.68 9.56 18.1 6.95 6.61 13.07 8.39 17.64 8.39 3.18 0 5.61-.86 7.05-1.55 5.36-2.57 8.79-7.95 8.36-13.08Zm-11.82 5.87c-4.23 2.03-9.96.05-15.71-5.42-3.9-3.72-5.88-6.09-6.89-7.53 5.07.42 15.75 3.87 20.21 5.31 2.21.71 4.12 1.33 5.56 1.74.64.18.65.38.68.71.11 1.35-1.16 3.9-3.85 5.19ZM204.76 182.1c-6.45-.29-11.72 1.7-15.25 5.76l6.04 5.25c2.36-2.71 6.11-3.14 8.85-3.01 8.86.4 19.36 6.63 25.53 15.17l6.48-4.69c-7.62-10.54-20.34-17.96-31.65-18.47Z" class="cls-1"/>
    <path d="M199.16 199.05c-7.86-.35-17.19-5.9-22.67-13.48l-6.48 4.69c6.92 9.58 18.5 16.33 28.79 16.79.38.02.75.03 1.11.03 5.43 0 9.88-1.84 12.93-5.35l-6.04-5.25c-2.02 2.32-5.28 2.68-7.65 2.58ZM145.58 187.38c-5.35-.24-9.9 1.5-12.84 4.88l6.04 5.25c1.68-1.93 4.44-2.23 6.44-2.14 6.86.31 15.01 5.16 19.81 11.8l6.48-4.69c-6.23-8.62-16.65-14.69-25.94-15.11Z" class="cls-1"/>
    <path d="M136.83 200.2c-6.06-.27-13.27-4.57-17.52-10.46l-6.48 4.69c5.67 7.85 15.18 13.38 23.65 13.76.3.01.59.02.89.02 4.54 0 8.42-1.6 10.99-4.55l-6.04-5.25c-1.4 1.62-3.75 1.86-5.48 1.79ZM91.07 189.55c-4.51-.21-8.39 1.28-10.91 4.18l6.04 5.25c1.13-1.3 3.09-1.5 4.51-1.44 4.44.2 11.1 3.39 15.23 9.11l6.48-4.69c-5.12-7.08-13.7-12.07-21.36-12.42ZM80.18 201.35c-3.9-.17-9.76-2.99-13.41-8.03l-6.48 4.69c4.68 6.47 12.52 11.03 19.53 11.34.25.01.5.02.75.02 3.87 0 7.18-1.38 9.39-3.92l-6.04-5.25c-.91 1.05-2.54 1.21-3.74 1.15Z" class="cls-1"/>
</svg>
