<svg xmlns="http://www.w3.org/2000/svg" height="200" viewBox="0 0 487.54 278.85">
    <defs>
        <style>
            .cls-1{fill:currentColor;stroke-width:0}
        </style>
    </defs>
    <path d="M160.19 269.09c-5.84 0-11.34-2.27-15.49-6.38-4.17-4.14-6.48-9.65-6.51-15.53-.02-5.88 2.24-11.41 6.38-15.58l29.71-29.96-29.96-29.71c-8.61-8.54-8.67-22.5-.13-31.11s22.5-8.67 31.11-.13l29.96 29.71 29.71-29.96c4.14-4.17 9.65-6.48 15.53-6.51 5.88-.05 11.41 2.24 15.58 6.38s6.48 9.65 6.51 15.53c.02 5.88-2.24 11.41-6.38 15.58l-29.71 29.96 29.96 29.71c8.61 8.54 8.67 22.5.13 31.11s-22.5 8.67-31.11.13l-29.96-29.71-29.71 29.96c-4.16 4.2-9.71 6.51-15.62 6.51Zm-.38-126.78c-3.6 0-7.21 1.38-9.94 4.13-5.44 5.48-5.4 14.36.08 19.8l35.64 35.34-35.34 35.64a13.961 13.961 0 0 0-4.06 9.92c.02 3.74 1.49 7.25 4.14 9.88 2.64 2.62 6.14 4.06 9.86 4.06s7.29-1.47 9.94-4.14l35.34-35.64 35.64 35.34c5.48 5.44 14.36 5.4 19.8-.08 5.44-5.48 5.4-14.36-.08-19.8l-35.64-35.34 35.34-35.64c2.63-2.66 4.07-6.18 4.06-9.92-.02-3.74-1.49-7.25-4.14-9.88a13.906 13.906 0 0 0-9.86-4.06h-.06c-3.74.02-7.25 1.49-9.88 4.14l-35.34 35.64-35.64-35.34a13.97 13.97 0 0 0-9.86-4.05ZM99.44 269.09H34.96c-12.13 0-22-9.87-22-22s9.87-22 22-22H45.2v-26.27c-9.79 5.8-22.61 3.15-29.23-6.33-6.95-9.94-4.51-23.69 5.43-30.64l33.2-23.2a21.95 21.95 0 0 1 22.77-1.48c7.3 3.8 11.83 11.28 11.83 19.51v68.4h10.24c12.13 0 22 9.87 22 22s-9.87 22-22 22Zm-64.47-36c-7.72 0-14 6.28-14 14s6.28 14 14 14h64.47c7.72 0 14-6.28 14-14s-6.28-14-14-14H81.2v-76.4c0-5.24-2.88-9.99-7.53-12.41a13.96 13.96 0 0 0-14.49.94l-33.2 23.2c-6.33 4.42-7.88 13.17-3.46 19.5s13.17 7.88 19.5 3.46l11.18-7.81v49.54H34.96Z" class="cls-1"/>
    <path d="M67.2 134.42c-12.13 0-22-9.87-22-22V44H22C9.87 44 0 34.13 0 22S9.87 0 22 0h195.12c17.08 0 31.81 4.65 42.59 13.46 11.05 9.02 17.38 22.11 17.38 35.92 0 14.63-7.05 28.57-19.07 38.14l9.39 9.05c4.23 4.08 6.62 9.56 6.72 15.44.11 5.88-2.08 11.44-6.16 15.67-4.18 4.34-9.81 6.73-15.84 6.73s-11.15-2.19-15.27-6.17l-35.01-33.77c-6.49-6.26-8.5-15.71-5.13-24.07 3.38-8.36 11.38-13.76 20.4-13.76 12.19 0 15.97-5.32 15.97-7.26 0-.21 0-.85-1.21-1.84-1.3-1.07-5.35-3.54-14.76-3.54h-33.39v68.4c0 12.13-9.87 22-22 22s-22-9.87-22-22V44H89.2v68.42c0 12.13-9.87 22-22 22ZM22 8C14.28 8 8 14.28 8 22s6.28 14 14 14h31.2v76.42c0 7.72 6.28 14 14 14s14-6.28 14-14V36h66.53v76.4c0 7.72 6.28 14 14 14s14-6.28 14-14V36h41.39c10.98 0 16.84 2.91 19.82 5.34 3.43 2.8 4.15 5.91 4.15 8.03 0 6.13-6.38 15.26-23.97 15.26a13.94 13.94 0 0 0-12.98 8.76c-2.15 5.32-.87 11.33 3.26 15.32l35.01 33.77c2.62 2.53 6.07 3.92 9.72 3.92 3.84 0 7.42-1.52 10.08-4.28 2.6-2.69 3.99-6.23 3.92-9.97s-1.59-7.23-4.28-9.82l-16.42-15.84 4.18-2.75c12.2-8.03 19.48-20.87 19.48-34.36 0-11.39-5.26-22.23-14.44-29.72-9.34-7.62-22.32-11.65-37.53-11.65H22Zm278.12 103.54c0 .22-.01.44 0 .66l6.02 4.16 4.54-6.58-11.75-8.11c.73 3.21 1.14 6.52 1.2 9.88Zm15.49 139.85 3.69-11.29c10.22 3.05 20.7 4.54 31.38 4.45l.9 13.31 7.98-.54-1.42-21.05-3.91.18a98.261 98.261 0 0 1-36.21-5.15 101.4 101.4 0 0 1-18.03-8.15l-2 3.46 2-3.46c-5.67-3.27-11.08-7.15-16.07-11.53-.79-.7-1.56-1.42-2.32-2.14l3.17 3.14a47.749 47.749 0 0 1 12.81 22.7l1.92-3.32c3.94 2.08 8.03 3.93 12.23 5.52l-3.72 11.37 7.6 2.49Zm-14.28-123.81-3.44-.65c-.83 2.6-1.89 5.12-3.15 7.55l5.1.97 1.49-7.86Zm1.61-82.79c7.28-3.18 14.95-5.54 22.88-6.99l1.93 11.15 7.88-1.36-1.89-10.93c9.09-.97 18.44-.77 27.87.67l1.21-7.91c-10.18-1.56-20.4-1.73-30.44-.6l-1.53-8.84-7.88 1.36 1.5 8.65c-7.69 1.43-15.24 3.65-22.53 6.65.49 2.68.82 5.4 1 8.15Zm-3.01 71.7a47.36 47.36 0 0 1-1.37 8.08l3.31 1.34 3.01-7.41-4.95-2.01Zm-26.66 84.74 3.77 3.74a94.675 94.675 0 0 1-3.53-3.98l-.24.24Zm26.59-55.32-.25-8-4.46.14c1.03 2.56 1.82 5.21 2.39 7.93l2.31-.07Zm29.59 26.23c5.96 3.44 12.47 5.08 18.87 5.08 12.69 0 24.93-6.44 31.61-18 8.64-14.96 5.28-34.24-7.98-45.84-1.86-1.63-3.9-3.09-6.07-4.34-8.6-4.97-18.58-6.37-28.1-3.94-9.56 2.43-17.5 8.42-22.38 16.87-4.88 8.44-6.09 18.32-3.42 27.82 2.66 9.46 8.87 17.4 17.47 22.37Zm-10.54-36.38c.51-3.42 1.65-6.73 3.42-9.8 3.79-6.56 9.98-11.22 17.43-13.11 6.2-1.58 12.65-1.08 18.53 1.35l-8.49 14.7 6.93 4 8.48-14.69c.5.39 1 .78 1.47 1.2 10.4 9.1 13.05 24.16 6.32 35.82-1.8 3.12-4.12 5.74-6.8 7.86l-9.15-14.87-6.81 4.19 9.04 14.69c-8.06 3.26-17.6 2.87-25.84-1.89-6.79-3.92-11.67-10.17-13.77-17.6-.36-1.27-.62-2.56-.8-3.84l17.26.49.23-8-17.46-.5Zm-17.03 19.71-1.84-7.79-2.09.49c.4 2.47.62 4.99.63 7.55 0 .18 0 .35-.01.53l3.31-.78Zm133.62 11.984 1.958-7.757 30.077 7.589-1.957 7.757zm1.93-46.14 30.511-5.254 1.358 7.884-30.511 5.254zm-3.57-12.396 29.465-9.442 2.441 7.618-29.464 9.443zm-5.262-11.76 27.845-13.443 3.478 7.204-27.845 13.443zm-6.872-10.992L447.4 68.972l4.452 6.647-25.675 17.194zm17.512 47.875 30.975-.968.25 7.996-30.975.968z" class="cls-1"/>
    <path d="M439.7 38.35 423.16 9.86l-34.42-.08.15-.45c-30.05-9.8-62.82-9.27-92.29 1.49-1.31.48-2.61.98-3.9 1.5 1.43 2.35 2.71 4.78 3.86 7.27a132.83 132.83 0 0 1 86.89-3.58l-14.4 24.94 18.13 31.23 36.11.08 14.39-24.93c44.21 41.6 54.84 107.95 24.99 159.66A125.819 125.819 0 0 1 441.76 234l-14.18-24.42-36.11-.08-18 31.18 14.41 24.83c-29.89 8.77-62.01 6.66-90.74-5.73-.72 2.56-1.65 5.06-2.8 7.49 17.92 7.67 37.08 11.59 56.26 11.59 14.71 0 29.45-2.3 43.64-6.95l33.47.08 17.4-30.14c9.61-9.02 17.85-19.38 24.48-30.85 32.48-56.25 19.89-128.78-29.9-172.64Zm-21.02 25.9-26.88-.06-13.5-23.25 13.37-23.15 26.88.06 13.5 23.25-13.37 23.15Zm4.43 199.72-26.88-.06-13.5-23.25 13.37-23.15 26.88.06 13.5 23.25-13.37 23.15Z" class="cls-1"/>
    <path d="M410.49 176.86c16.79-29.08 10.24-66.57-15.57-89.16a74.778 74.778 0 0 0-11.83-8.46c-29.52-17.04-65.88-11.38-88.07 11.6a47.47 47.47 0 0 1 3.26 8.31c2.65-3.09 5.56-5.89 8.7-8.35l-5.64 5.24 11.04 11.89 5.86-5.44-11.02-11.87c1.59-1.23 3.23-2.39 4.92-3.45l8.15 13.9 6.9-4.05-8.03-13.7c12.9-6.01 27.8-7.63 42.17-4.22l-4.5 14.27 3.87 1.18c3.48 1.06 6.85 2.52 10.01 4.35 23.39 13.5 31.13 44.04 17.25 68.08-1.22 2.11-2.6 4.15-4.1 6.07l-2.44 3.12 12.14 9.67a61.126 61.126 0 0 1-14.28 10.53l-7-14.37-7.19 3.5 6.9 14.17c-2.26.86-4.57 1.6-6.95 2.21-.85.22-1.69.4-2.54.58l-2.68-15.3-7.88 1.38 2.64 15.1c-3.25.28-6.51.31-9.75.1l1.6-15.05-7.96-.84-1.58 14.9c-3.14-.6-6.25-1.44-9.3-2.51l5.57-13.77-7.42-3-5.52 13.66c-1.33-.66-2.66-1.34-3.95-2.09-8.93-5.16-16.18-12.09-21.57-20.06a47.549 47.549 0 0 1-4.26 7.79c5.75 7.56 13.07 14.14 21.84 19.2 11.4 6.58 24.03 9.95 36.78 9.95 6 0 12.03-.75 17.97-2.26 18.58-4.73 34.02-16.37 43.49-32.77Zm.78-27-8.82-1.8c.28-2.49.42-4.98.39-7.45l8.86-.68c.12 3.31-.02 6.64-.43 9.94Zm-.36-17.9-8.74.67a57.76 57.76 0 0 0-1.59-7.27l8-2.97c1.02 3.13 1.8 6.33 2.32 9.57Zm-36.22-40a55.675 55.675 0 0 0-7.87-3.76l2.14-6.77c3.44 1.28 6.83 2.84 10.12 4.74 3.77 2.18 7.32 4.72 10.56 7.55 2.28 2 4.39 4.13 6.33 6.38l-6.23 4.58a55.599 55.599 0 0 0-15.06-12.72Zm19.7 19.24 6.45-4.75a64.89 64.89 0 0 1 4.8 8.5l-7.78 2.88c-1.01-2.28-2.16-4.5-3.47-6.64Zm-1.9 63.57a65.36 65.36 0 0 0 2.39-3.8c2.79-4.83 4.81-9.9 6.12-15.04l8.67 1.77 1.59-7.79a61.11 61.11 0 0 1-7.7 22.95 62.028 62.028 0 0 1-4.7 6.97l-6.37-5.07Z" class="cls-1"/>
    <path d="m302.71 157.82-4.29 2.07c-.27 3.34-.87 6.6-1.81 9.76l9.58-4.63-3.48-7.2Zm128.186 21.67 3.012-7.412 28.746 11.684-3.012 7.411zm7.47-24.593.863-7.954 30.829 3.344-.863 7.953z" class="cls-1"/>
</svg>
